<?xml version="1.0" encoding="UTF-8"?>
<svg id="Layer_1" data-name="Layer 1" xmlns="http://www.w3.org/2000/svg" viewBox="0 0 1919.667 473.76">
  <g>
    <path d="m1.226,466.665l55.642-55.642c3.118-3.118,7.347-4.87,11.757-4.87h388.723c3.703,0,5.558,4.477,2.939,7.096l-55.642,55.642c-3.118,3.118-7.347,4.87-11.757,4.87H4.165c-3.703,0-5.558-4.477-2.939-7.096Z"/>
    <path d="m68.833,263.842l55.642-55.642c3.118-3.118,7.347-4.87,11.757-4.87h388.723c3.703,0,5.558,4.477,2.939,7.096l-55.642,55.642c-3.118,3.118-7.347,4.87-11.757,4.87H71.772c-3.703,0-5.558-4.477-2.939-7.096Z"/>
    <path d="m136.441,60.512L192.083,4.87c3.118-3.118,7.347-4.87,11.757-4.87h388.723c3.703,0,5.558,4.477,2.939,7.096l-55.642,55.642c-3.118,3.118-7.347,4.87-11.757,4.87H139.38c-3.703,0-5.558-4.477-2.939-7.096Z"/>
  </g>
  <g>
    <g>
      <path d="m803.132,76.702h-40.412v108.486h-22.38v-108.486h-40.41v-20.515h103.203v20.515Z"/>
      <path d="m932.91,169.646c-12.954,12.851-29.276,19.272-48.961,19.272s-36.009-6.42-48.957-19.272c-12.954-12.847-19.428-29.011-19.428-48.492,0-19.685,6.474-35.952,19.428-48.804,12.948-12.847,29.269-19.272,48.957-19.272s36.006,6.425,48.961,19.272c12.948,12.851,19.425,29.119,19.425,48.804,0,19.481-6.477,35.645-19.425,48.492Zm-16.787-83.929c-8.812-8.495-19.536-12.744-32.174-12.744s-23.365,4.303-32.171,12.901c-8.812,8.601-13.211,20.36-13.211,35.281s4.453,26.631,13.366,35.126c8.907,8.5,19.584,12.744,32.015,12.744s23.106-4.244,32.019-12.744c8.907-8.495,13.366-20.206,13.366-35.126,0-15.126-4.406-26.937-13.211-35.438Z"/>
      <path d="m986.527,56.188h103.822v129.001h-22.38v-108.486h-59.061v108.486h-22.38V56.188Z"/>
      <path d="m1302.649,56.188v129.001h-22.38v-108.486h-46.005v58.128c0,16.785-3.319,29.22-9.949,37.302-7.459,9.122-17.826,13.678-31.084,13.678-1.66,0-3.94-.209-6.838-.622v-20.516c2.068.418,3.731.622,4.973.622,7.253,0,12.638-2.798,16.163-8.393,2.901-4.556,4.352-11.914,4.352-22.07V56.188h90.769Z"/>
      <path d="m1344.923,56.188h22.38v85.171l88.28-95.118v138.948h-22.38v-86.104l-88.28,95.118V56.188Z"/>
      <path d="m1507.182,56.188h90.766v108.484h19.273v54.709h-20.515v-34.193h-98.228v34.193h-20.515v-54.709c10.772-.203,18.751-5.799,23.932-16.785,3.522-7.252,5.286-18.651,5.286-34.193v-57.506Zm68.386,108.484v-87.969h-46.005v48.492c0,17.203-5.182,30.362-15.542,39.478h61.548Z"/>
      <path d="m1736.582,141.981l18.652,10.257c-4.352,8.29-9.638,15.232-15.856,20.827-11.811,10.569-26.108,15.852-42.895,15.852-17.408,0-32.383-5.643-44.919-16.94-12.539-11.293-18.804-28.132-18.804-50.513,0-19.685,5.644-36.005,16.942-48.959,11.292-12.948,26.469-19.427,45.537-19.427,21.551,0,37.818,7.877,48.805,23.624,8.704,12.435,12.742,28.598,12.121,48.492h-100.404c.206,13.056,4.247,23.625,12.125,31.707,7.874,8.083,17.509,12.123,28.908,12.123,10.151,0,18.963-3.109,26.422-9.325,5.799-4.974,10.259-10.88,13.366-17.718Zm-79.266-35.438h75.848c-1.866-10.15-6.271-18.287-13.211-24.401-6.946-6.11-15.184-9.169-24.715-9.169-9.325,0-17.563,3.161-24.712,9.481-7.149,6.324-11.554,14.351-13.211,24.089Z"/>
      <path d="m1812.738,167.16v89.523h-22.38V56.188h22.38v18.028c11.393-14.09,26.111-21.137,44.14-21.137,19.273,0,34.552,6.789,45.85,20.36,11.292,13.575,16.939,29.584,16.939,48.026,0,18.651-5.594,34.557-16.784,47.714-11.19,13.163-26.219,19.739-45.074,19.739s-33.881-7.252-45.071-21.758Zm41.964,1.864c12.638,0,22.792-4.608,30.463-13.832,7.665-9.219,11.501-20.463,11.501-33.727,0-14.921-4.251-26.732-12.745-35.436-8.498-8.704-18.339-13.056-29.529-13.056s-21.139,4.352-29.843,13.056c-8.704,8.704-13.056,20.413-13.056,35.126,0,13.472,3.988,24.819,11.969,34.038,7.975,9.223,18.386,13.832,31.239,13.832Z"/>
    </g>
    <g>
      <path d="m816.188,289.708v129.001h-22.38v-108.486h-46.005v58.128c0,16.785-3.319,29.22-9.949,37.302-7.459,9.122-17.826,13.678-31.084,13.678-1.66,0-3.94-.209-6.84-.622v-20.516c2.07.418,3.733.622,4.974.622,7.253,0,12.638-2.798,16.163-8.393,2.901-4.556,4.352-11.914,4.352-22.07v-78.643h90.769Z"/>
      <path d="m954.201,375.502l18.652,10.257c-4.352,8.29-9.635,15.232-15.852,20.827-11.814,10.569-26.111,15.852-42.898,15.852-17.408,0-32.38-5.643-44.916-16.94-12.543-11.293-18.808-28.132-18.808-50.513,0-19.685,5.644-36.005,16.942-48.959,11.292-12.948,26.469-19.427,45.54-19.427,21.551,0,37.815,7.877,48.802,23.624,8.704,12.435,12.745,28.598,12.121,48.492h-100.401c.203,13.056,4.244,23.625,12.121,31.707,7.874,8.083,17.509,12.123,28.908,12.123,10.151,0,18.963-3.109,26.422-9.325,5.799-4.974,10.259-10.88,13.366-17.718Zm-79.266-35.438h75.848c-1.866-10.15-6.271-18.287-13.211-24.401-6.946-6.11-15.184-9.169-24.712-9.169-9.328,0-17.563,3.161-24.715,9.481-7.149,6.324-11.554,14.351-13.211,24.089Z"/>
      <path d="m1108.998,299.033v26.732c-10.154-12.847-23.622-19.272-40.409-19.272-12.644,0-23.419,4.303-32.329,12.901-8.913,8.601-13.366,20.36-13.366,35.281s4.453,26.631,13.366,35.126c8.91,8.5,19.584,12.744,32.019,12.744,16.578,0,30.463-6.731,41.654-20.204v26.732c-12.229,8.913-25.909,13.366-41.033,13.366-20.103,0-36.63-6.371-49.578-19.116-12.954-12.745-19.428-28.856-19.428-48.337,0-19.685,6.528-36.005,19.584-48.959,13.056-12.948,29.529-19.427,49.423-19.427,14.921,0,28.287,4.148,40.098,12.433Z"/>
      <path d="m1228.673,310.223h-40.412v108.486h-22.38v-108.486h-40.409v-20.515h103.201v20.515Z"/>
      <path d="m1252.294,418.709v-129.001h22.38v52.844h60.927v-52.844h22.38v129.001h-22.38v-55.642h-60.927v55.642h-22.38Z"/>
      <path d="m1400.256,289.708h22.38v85.171l88.28-95.118v138.948h-22.38v-86.104l-88.28,95.118v-138.015Z"/>
      <path d="m1553.191,418.709v-129.001h22.38v108.484h57.816v-108.484h22.38v108.484h21.139v54.709h-20.515v-34.193h-103.201Z"/>
    </g>
  </g>
</svg>